<svg xmlns="http://www.w3.org/2000/svg" width="24" height="24" fill="none" viewBox="0 0 24 24">
  <path stroke="#545454" stroke-linecap="round" stroke-linejoin="round" stroke-width="2" d="M12 21.25c1.805 0 2.62-.745 3.95-1.5 1.055-.595 2.6-.695 3.235-1.36a6.074 6.074 0 0 0 1.66-4.655c0-.975-.475-2.415-.475-2.8 0-.385 1.9-8.185-.37-8.185-1.645 0-5.245 4.085-5.245 4.085A5.67 5.67 0 0 0 12 5.96a5.67 5.67 0 0 0-2.765.875S5.635 2.75 4 2.75c-2.26 0-.36 7.81-.36 8.195 0 .385-.5 1.825-.5 2.8A6.075 6.075 0 0 0 4.815 18.4c.635.665 2.18.765 3.235 1.36 1.33.74 2.145 1.49 3.95 1.49Z"/>
</svg>
