<svg xmlns="http://www.w3.org/2000/svg" width="226" height="28" fill="none" viewBox="0 0 226 28">
  <path fill="#F9C385" d="M18.27 24.872c-1.088.864-2.23 1.483-3.424 1.856-1.184.363-2.475.544-3.872.544-1.653 0-3.136-.33-4.448-.992a10.216 10.216 0 0 1-3.344-2.72c-.917-1.141-1.621-2.475-2.112-4-.48-1.525-.72-3.147-.72-4.864 0-1.077.09-2.117.272-3.12.181-1.013.459-1.963.832-2.848.373-.896.848-1.707 1.424-2.432a8.636 8.636 0 0 1 2.048-1.888 9.595 9.595 0 0 1 2.72-1.232c1.013-.299 2.144-.448 3.392-.448 1.387 0 2.704.235 3.952.704a9.46 9.46 0 0 1 3.28 2.064L15.902 8.44a14.126 14.126 0 0 0-1.12-.672c-.384-.213-.773-.4-1.168-.56a8.493 8.493 0 0 0-1.184-.384 4.805 4.805 0 0 0-1.136-.144c-1.013 0-1.861.208-2.544.624a4.704 4.704 0 0 0-1.648 1.712c-.416.715-.715 1.557-.896 2.528-.17.97-.256 2.005-.256 3.104 0 .65.043 1.317.128 2 .096.672.235 1.328.416 1.968.192.64.432 1.243.72 1.808a6.97 6.97 0 0 0 1.04 1.488c.405.416.864.747 1.376.992.512.245 1.088.368 1.728.368.363 0 .72-.027 1.072-.08a8.06 8.06 0 0 0 1.104-.288 14.26 14.26 0 0 0 1.28-.528 33.6 33.6 0 0 0 1.552-.816l1.904 3.312Zm11.325 2.4c-1.28 0-2.454-.23-3.52-.688a8.59 8.59 0 0 1-2.768-1.92 9.05 9.05 0 0 1-1.808-2.896c-.427-1.11-.64-2.315-.64-3.616 0-1.29.207-2.49.623-3.6a8.578 8.578 0 0 1 1.76-2.88 8.173 8.173 0 0 1 2.768-1.904c1.078-.47 2.272-.683 3.584-.64 1.28-.043 2.448.17 3.505.64a7.912 7.912 0 0 1 2.704 1.904 8.578 8.578 0 0 1 1.76 2.88c.415 1.11.623 2.31.623 3.6 0 1.301-.202 2.507-.608 3.616a8.473 8.473 0 0 1-1.712 2.896 8.099 8.099 0 0 1-2.703 1.92c-1.056.459-2.246.688-3.568.688Zm3.376-8.72c0-.725-.064-1.44-.192-2.144a6.642 6.642 0 0 0-.593-1.888c-.277-.565-.634-1.019-1.072-1.36-.437-.341-.965-.512-1.584-.512-.597 0-1.114.15-1.552.448a3.395 3.395 0 0 0-1.056 1.168 6.035 6.035 0 0 0-.623 1.68 8.751 8.751 0 0 0-.209 1.92c0 .736.07 1.456.209 2.16.138.704.352 1.333.64 1.888a3.98 3.98 0 0 0 1.104 1.328c.448.341.986.512 1.616.512.576 0 1.072-.144 1.488-.432a3.397 3.397 0 0 0 1.04-1.184c.266-.49.464-1.045.592-1.664a9.452 9.452 0 0 0 .191-1.92ZM53.175 12.6h-1.104c-.704 0-1.317.165-1.84.496-.523.33-.955.779-1.296 1.344a6.959 6.959 0 0 0-.752 1.968c-.16.747-.24 1.53-.24 2.352 0 .79.064 1.493.192 2.112s.304 1.147.528 1.584c.224.437.49.773.8 1.008.32.224.667.336 1.04.336.384 0 .72-.053 1.008-.16a2.99 2.99 0 0 0 .752-.432 2.92 2.92 0 0 0 .544-.608c.15-.224.272-.443.368-.656V12.6Zm0 14.4v-2.592l-2 2.752a2.344 2.344 0 0 1-.24.048.999.999 0 0 1-.272.032 3.44 3.44 0 0 1-.368.016c-.139.01-.32.016-.544.016a6.068 6.068 0 0 1-2.752-.64 6.867 6.867 0 0 1-2.224-1.824c-.63-.779-1.125-1.696-1.488-2.752-.363-1.067-.544-2.235-.544-3.504 0-1.27.219-2.459.656-3.568a8.488 8.488 0 0 1 1.872-2.912c.81-.832 1.787-1.483 2.928-1.952 1.152-.48 2.437-.72 3.856-.72h1.12V.888l5.216.512v22.256L58.743 27h-5.568Zm26.38-2.528c-.426.395-.885.763-1.376 1.104-.49.33-1.034.624-1.632.88-.597.245-1.258.437-1.983.576-.726.15-1.526.224-2.4.224-1.537 0-2.891-.25-4.064-.752-1.163-.501-2.14-1.168-2.928-2a8.57 8.57 0 0 1-1.792-2.896 9.916 9.916 0 0 1-.593-3.408 9.3 9.3 0 0 1 .273-2.24c.18-.747.447-1.45.8-2.112a9.695 9.695 0 0 1 1.28-1.872 8.313 8.313 0 0 1 1.743-1.488 8.742 8.742 0 0 1 2.177-.976 8.743 8.743 0 0 1 2.575-.368c1.28 0 2.422.192 3.424.576 1.003.373 1.851.901 2.544 1.584a6.634 6.634 0 0 1 1.585 2.432c.362.95.543 2 .543 3.152 0 .288-.02.667-.063 1.136-.033.47-.075.976-.129 1.52h-11.95c.02.576.18 1.125.48 1.648.298.512.677.96 1.136 1.344.469.384.986.693 1.552.928a4.737 4.737 0 0 0 1.728.336c.544 0 1.066-.059 1.568-.176.511-.117.97-.261 1.375-.432.416-.17.774-.347 1.072-.528a4.97 4.97 0 0 0 .689-.464l2.367 2.272Zm-4.528-8.224c0-.49-.074-.955-.224-1.392a3.346 3.346 0 0 0-.623-1.152 2.866 2.866 0 0 0-1.04-.8c-.416-.203-.897-.304-1.44-.304-.544 0-1.02.08-1.425.24-.405.16-.752.363-1.04.608a3.562 3.562 0 0 0-.704.752 4.19 4.19 0 0 0-.4.704l-1.456 1.648 2.769-.288 5.584-.016ZM105.742 3h14.048v3.648h-4.368v16.704h4.816l-.56 3.648H105.63v-3.648h4.448V6.648h-4.896l.56-3.648Zm33.644 11.168a15.785 15.785 0 0 0-.944-.56 7.604 7.604 0 0 0-1.072-.48 7.212 7.212 0 0 0-1.232-.352 6.56 6.56 0 0 0-1.408-.144c-.459 0-.933.021-1.424.064-.48.043-.917.123-1.312.24-.395.107-.72.261-.976.464-.256.192-.384.437-.384.736 0 .277.144.517.432.72.288.192.651.363 1.088.512.437.15.912.277 1.424.384l1.488.304c.544.117 1.072.235 1.584.352.512.117.928.235 1.248.352a8.387 8.387 0 0 1 1.504.784c.48.31.896.661 1.248 1.056.363.384.645.805.848 1.264.213.459.32.944.32 1.456 0 .715-.144 1.36-.432 1.936a4.874 4.874 0 0 1-1.152 1.504 7.38 7.38 0 0 1-1.68 1.136c-.629.32-1.301.581-2.016.784-.704.203-1.424.352-2.16.448-.736.096-1.44.144-2.112.144-.64 0-1.275-.048-1.904-.144a13.559 13.559 0 0 1-1.808-.368 13.005 13.005 0 0 1-1.616-.56 7.93 7.93 0 0 1-1.28-.72l1.568-3.36c.736.448 1.515.821 2.336 1.12.832.288 1.744.432 2.736.432.245 0 .528-.01.848-.032.331-.032.667-.08 1.008-.144a11.39 11.39 0 0 0 1.04-.272c.341-.117.645-.261.912-.432.267-.17.48-.373.64-.608.171-.245.256-.528.256-.848 0-.288-.128-.533-.384-.736a3.381 3.381 0 0 0-.976-.544 8.468 8.468 0 0 0-1.296-.368 52.761 52.761 0 0 0-1.344-.288c-.309-.064-.624-.128-.944-.192-.309-.075-.608-.15-.896-.224-.288-.075-.555-.15-.8-.224a5.355 5.355 0 0 1-.624-.256h.016c-.704-.33-1.291-.677-1.76-1.04a6.069 6.069 0 0 1-1.104-1.136 4.194 4.194 0 0 1-.576-1.216 5.054 5.054 0 0 1-.16-1.264c0-.81.235-1.51.704-2.096.469-.597 1.093-1.088 1.872-1.472.789-.395 1.691-.683 2.704-.864a17.338 17.338 0 0 1 3.2-.288c.597 0 1.195.048 1.792.144a13.74 13.74 0 0 1 1.728.352c.544.139 1.04.299 1.488.48.448.181.816.363 1.104.544l-1.36 3.52Zm12.941-9.28-2.72.64h-2.817l-.431-3.584h9.92v18.848c0 .544.053 1.003.16 1.376.106.363.245.656.416.88.181.224.384.384.608.48.224.096.448.144.672.144.298 0 .57-.043.816-.128a3.56 3.56 0 0 0 1.28-.816c.181-.181.341-.357.48-.528l1.728 3.088a5.954 5.954 0 0 0-.496.48 4.82 4.82 0 0 1-.864.656c-.352.224-.795.421-1.328.592-.523.17-1.158.256-1.904.256-1.152 0-2.144-.181-2.976-.544-.832-.363-1.52-.853-2.064-1.472a6.036 6.036 0 0 1-1.216-2.176 8.928 8.928 0 0 1-.384-2.64V6.328l1.12-1.44ZM183.41 27h-5.44v-1.6l-1.344 1.52a7.052 7.052 0 0 1-1.12.256 5.91 5.91 0 0 1-1.024.096 9.69 9.69 0 0 1-2.672-.384 8.51 8.51 0 0 1-2.432-1.152 6.46 6.46 0 0 1-1.76-1.888c-.448-.747-.672-1.605-.672-2.576 0-1.024.229-1.91.688-2.656a5.728 5.728 0 0 1 1.808-1.84 8.358 8.358 0 0 1 2.56-1.088c.949-.235 1.92-.352 2.912-.352.608 0 1.163.021 1.664.064.501.032.965.085 1.392.16-.043-.907-.272-1.627-.688-2.16-.416-.533-1.056-.8-1.92-.8a12.9 12.9 0 0 0-2.784.304c-.437.096-.848.203-1.232.32-.373.117-.704.24-.992.368l-1.504-2.96c.491-.224.96-.427 1.408-.608.459-.192.939-.352 1.44-.48.512-.139 1.072-.24 1.68-.304a17.853 17.853 0 0 1 2.144-.112c1.365 0 2.523.17 3.472.512.96.33 1.739.805 2.336 1.424a5.352 5.352 0 0 1 1.296 2.208c.277.853.416 1.797.416 2.832V23.8l.368 3.2Zm-5.44-8a35.69 35.69 0 0 0-.56-.032 13.21 13.21 0 0 0-.656-.016c-.224-.01-.448-.016-.672-.016-.213-.01-.4-.016-.56-.016a6.67 6.67 0 0 0-1.216.112 3.27 3.27 0 0 0-1.056.384c-.309.181-.56.421-.752.72-.192.299-.288.672-.288 1.12 0 .363.064.693.192.992.139.288.32.539.544.752a2.435 2.435 0 0 0 1.664.672c.608 0 1.189-.133 1.744-.4a7.45 7.45 0 0 0 1.616-1.072V19Zm15.469 8h-5.072V9.4l5.072-.32V11l1.232-1.6a6.991 6.991 0 0 1 1.296-.208 18.252 18.252 0 0 1 1.632-.064c.97 0 1.845.144 2.624.432.778.288 1.434.699 1.968 1.232a5.17 5.17 0 0 1 1.248 1.92c.288.747.432 1.584.432 2.512V27h-5.072V15.224c0-.437-.07-.81-.208-1.12a2.182 2.182 0 0 0-.512-.784 2.022 2.022 0 0 0-.736-.448 2.628 2.628 0 0 0-.864-.144c-.672 0-1.243.112-1.712.336-.459.213-.902.55-1.328 1.008V27Zm26.236-14.4h-1.104c-.704 0-1.317.165-1.84.496-.523.33-.955.779-1.296 1.344-.331.565-.581 1.221-.752 1.968-.16.747-.24 1.53-.24 2.352 0 .79.064 1.493.192 2.112s.304 1.147.528 1.584c.224.437.491.773.8 1.008.32.224.667.336 1.04.336.384 0 .72-.053 1.008-.16a3.01 3.01 0 0 0 .752-.432 2.92 2.92 0 0 0 .544-.608 4.62 4.62 0 0 0 .368-.656V12.6Zm0 14.4v-2.592l-2 2.752a2.313 2.313 0 0 1-.24.048.999.999 0 0 1-.272.032 3.64 3.64 0 0 1-.368.016c-.139.01-.32.016-.544.016a6.068 6.068 0 0 1-2.752-.64 6.867 6.867 0 0 1-2.224-1.824c-.629-.779-1.125-1.696-1.488-2.752-.363-1.067-.544-2.235-.544-3.504 0-1.27.219-2.459.656-3.568a8.48 8.48 0 0 1 1.872-2.912 8.604 8.604 0 0 1 2.928-1.952c1.152-.48 2.437-.72 3.856-.72h1.12V.888l5.216.512v22.256l.352 3.344h-5.568Z"/>
</svg>
