<svg xmlns="http://www.w3.org/2000/svg" width="52" height="49" fill="none" viewBox="0 0 52 49">
  <g clip-path="url(#a)">
    <mask id="b" width="37" height="29" x="6" y="11" maskUnits="userSpaceOnUse" style="mask-type:luminance">
      <path fill="#fff" stroke="#fff" stroke-linecap="round" stroke-linejoin="round" stroke-width="4" d="M39.952 15.89c.776 3.29-2.734 8.392-4.724 10 .354 4.563-4.129 7.674-6.493 8.651l.76-5.248c-3.342 1.643-8.918 1.26-11.055.966-.873 2.797-3.094 5.899-4.354 7.358-.081-6.089-4.057-9.313-5.955-10.032 2.031-1.206 6.25-1.133 8.203-.873.703-2.122 4.628-6.834 6.494-8.651l-4.621-1.255c5.215-3.778 9-3.05 10.353-2.149 6.114-2.265 10.34.011 11.392 1.233Z"/>
      <path fill="#000" d="M34.922 20.475c.791-.47 1.119-1.38.73-2.033-.387-.653-1.343-.801-2.134-.331-.792.47-1.12 1.38-.732 2.033.388.653 1.344.801 2.136.331Z"/>
    </mask>
    <g mask="url(#b)">
      <path fill="#79A0C9" d="M0 20.419 34.396 0 51.24 28.377 16.846 48.795 0 20.42Z"/>
    </g>
  </g>
  <defs>
    <clipPath id="a">
      <path fill="#fff" d="M0 0h40v33H0z" transform="rotate(-30.695 37.198 10.21)"/>
    </clipPath>
  </defs>
</svg>
