<svg xmlns="http://www.w3.org/2000/svg" width="35" height="35" fill="none" viewBox="0 0 35 35">
  <path fill="#FFD233" d="M.625.625h33.75v33.75H.625V.625Zm8.869 28.2c.75 1.594 2.231 2.906 4.762 2.906 2.813 0 4.744-1.5 4.744-4.781V16.113h-3.188v10.762c0 1.613-.656 2.025-1.687 2.025-1.088 0-1.537-.75-2.044-1.631l-2.587 1.556Zm11.212-.337c.938 1.837 2.832 3.243 5.794 3.243 3 0 5.25-1.556 5.25-4.425 0-2.643-1.519-3.825-4.219-4.987l-.787-.338c-1.369-.581-1.95-.975-1.95-1.912 0-.769.581-1.369 1.518-1.369.9 0 1.5.394 2.044 1.369l2.456-1.631c-1.03-1.8-2.493-2.494-4.5-2.494-2.83 0-4.65 1.8-4.65 4.181 0 2.587 1.52 3.806 3.807 4.781l.787.338c1.463.637 2.325 1.031 2.325 2.119 0 .9-.843 1.556-2.156 1.556-1.556 0-2.456-.806-3.131-1.931l-2.588 1.5Z"/>
</svg>
