<svg xmlns="http://www.w3.org/2000/svg" width="59" height="73" fill="none" viewBox="0 0 59 73">
  <path fill="#CCCCD3" d="M47.545 25.454h-29.09v-7.272c0-2.91 1.09-5.455 3.272-7.637C26.091 6.182 33 6.182 37 10.545c1.455 1.455 2.182 3.273 2.909 5.091.364 1.819 2.546 2.91 4.364 2.546 1.818-.364 3.272-2.546 2.545-4.364-.727-3.273-2.545-6.182-4.727-8.363C38.818 1.818 34.09 0 29.364 0 19.182 0 11.182 8 11.182 18.182v7.273C5 25.454.272 30.181.272 36.364v25.454C.273 68 5 72.728 11.183 72.728h36.363c6.182 0 10.91-4.728 10.91-10.91V36.364c0-6.182-4.728-10.91-10.91-10.91ZM33.364 49.091l-.364.364v5.09c0 2.182-1.455 3.637-3.636 3.637-2.182 0-3.637-1.455-3.637-3.637v-5.09c-2.182-2.182-2.545-5.455-.363-7.637 2.181-2.182 5.454-2.545 7.636-.363 2.182 1.818 2.545 5.454.364 7.636Z"/>
  <path fill="#CCCCD3" d="M11.182 25.454h29.09v-7.272c0-2.91-1.09-5.455-3.272-7.637-4.364-4.363-11.273-4.363-15.273 0-1.454 1.455-2.181 3.273-2.909 5.091-.363 1.819-2.545 2.91-4.363 2.546-1.819-.364-3.273-2.546-2.546-4.364.727-3.273 2.546-6.182 4.728-8.363C19.909 1.818 24.637 0 29.364 0c10.181 0 18.181 8 18.181 18.182v7.273c6.182 0 10.91 4.727 10.91 10.909v25.454c0 6.182-4.728 10.91-10.91 10.91H11.182C5 72.727.272 68 .272 61.817V36.364c0-6.182 4.728-10.91 10.91-10.91Zm14.182 23.637.363.364v5.09c0 2.182 1.455 3.637 3.637 3.637 2.181 0 3.636-1.455 3.636-3.637v-5.09c2.182-2.182 2.545-5.455.364-7.637-2.182-2.182-5.455-2.545-7.637-.363-2.181 1.818-2.545 5.454-.363 7.636Z"/>
</svg>
