<svg xmlns="http://www.w3.org/2000/svg" width="25" height="25" fill="none" viewBox="0 0 25 25">
  <mask id="a" fill="#fff">
    <path d="M14.453 22.917h-3.906a.973.973 0 0 1-.677-.26 1.038 1.038 0 0 1-.339-.652l-.312-2.422a3.975 3.975 0 0 1-.639-.312 8.313 8.313 0 0 1-.585-.39l-2.266.937a1.165 1.165 0 0 1-.729.026.968.968 0 0 1-.573-.443L2.5 16.041a.978.978 0 0 1-.13-.729 1 1 0 0 1 .39-.624l1.954-1.485a2.49 2.49 0 0 1-.026-.352v-.702c0-.113.008-.23.026-.352L2.76 10.312a1 1 0 0 1-.39-.625.979.979 0 0 1 .13-.729l1.927-3.36a.82.82 0 0 1 .56-.455c.25-.061.498-.048.742.04l2.266.937a6.283 6.283 0 0 1 1.224-.703l.312-2.422a1.04 1.04 0 0 1 .339-.651.973.973 0 0 1 .677-.26h3.906c.26 0 .486.086.677.26.191.173.304.39.339.65l.312 2.423c.226.086.439.19.639.312s.395.252.585.39l2.266-.937c.243-.087.486-.095.729-.026a.97.97 0 0 1 .573.443l1.927 3.36a.978.978 0 0 1 .13.728 1 1 0 0 1-.39.626l-1.953 1.484c.017.121.026.239.026.352v.702c0 .113-.018.23-.053.352l1.954 1.485a1 1 0 0 1 .39.624.978.978 0 0 1-.13.73l-1.927 3.333a1.025 1.025 0 0 1-.587.456 1.133 1.133 0 0 1-.741-.013l-2.214-.938c-.19.14-.39.27-.599.39a5.256 5.256 0 0 1-.625.313l-.312 2.422a1.04 1.04 0 0 1-.339.651.973.973 0 0 1-.677.26Zm-1.9-6.771a3.513 3.513 0 0 0 2.577-1.068 3.513 3.513 0 0 0 1.068-2.578 3.513 3.513 0 0 0-1.068-2.578 3.513 3.513 0 0 0-2.578-1.068c-1.024 0-1.888.356-2.592 1.068-.703.712-1.054 1.571-1.054 2.578s.352 1.866 1.054 2.578c.703.712 1.567 1.068 2.592 1.068Zm0-2.084c-.435 0-.804-.152-1.108-.456a1.503 1.503 0 0 1-.455-1.106c0-.434.152-.803.456-1.107a1.503 1.503 0 0 1 1.106-.456c.434 0 .803.153 1.107.457.305.304.456.673.456 1.106 0 .434-.152.803-.457 1.107a1.503 1.503 0 0 1-1.106.456Zm-1.095 6.771h2.058l.364-2.76a5.84 5.84 0 0 0 1.498-.613 6.23 6.23 0 0 0 1.263-.976l2.578 1.068 1.015-1.77-2.24-1.694c.088-.242.148-.498.183-.767a6.403 6.403 0 0 0 0-1.64 3.696 3.696 0 0 0-.182-.77l2.24-1.692-1.016-1.771-2.578 1.094a5.78 5.78 0 0 0-1.263-1.002 5.868 5.868 0 0 0-1.498-.613l-.338-2.76h-2.058l-.364 2.76a5.82 5.82 0 0 0-1.497.613c-.46.269-.881.594-1.264.976L5.781 7.448l-1.015 1.77 2.24 1.667c-.088.26-.148.521-.183.782-.035.26-.052.538-.052.833 0 .278.017.547.052.807.035.26.095.521.182.781l-2.24 1.693 1.016 1.771 2.578-1.094c.382.4.804.734 1.264 1.003.46.27.96.474 1.497.612l.338 2.76Z"/>
  </mask>
  <path stroke="#545454" stroke-width="2" d="M14.453 22.917h-3.906a.973.973 0 0 1-.677-.26 1.038 1.038 0 0 1-.339-.652l-.312-2.422a3.975 3.975 0 0 1-.639-.312 8.313 8.313 0 0 1-.585-.39l-2.266.937a1.165 1.165 0 0 1-.729.026.968.968 0 0 1-.573-.443L2.5 16.041a.978.978 0 0 1-.13-.729 1 1 0 0 1 .39-.624l1.954-1.485a2.49 2.49 0 0 1-.026-.352v-.702c0-.113.008-.23.026-.352L2.76 10.312a1 1 0 0 1-.39-.625.979.979 0 0 1 .13-.729l1.927-3.36a.82.82 0 0 1 .56-.455c.25-.061.498-.048.742.04l2.266.937a6.283 6.283 0 0 1 1.224-.703l.312-2.422a1.04 1.04 0 0 1 .339-.651.973.973 0 0 1 .677-.26h3.906c.26 0 .486.086.677.26.191.173.304.39.339.65l.312 2.423c.226.086.439.19.639.312s.395.252.585.39l2.266-.937c.243-.087.486-.095.729-.026a.97.97 0 0 1 .573.443l1.927 3.36a.978.978 0 0 1 .13.728 1 1 0 0 1-.39.626l-1.953 1.484c.017.121.026.239.026.352v.702c0 .113-.018.23-.053.352l1.954 1.485a1 1 0 0 1 .39.624.978.978 0 0 1-.13.73l-1.927 3.333a1.025 1.025 0 0 1-.587.456 1.133 1.133 0 0 1-.741-.013l-2.214-.938c-.19.14-.39.27-.599.39a5.256 5.256 0 0 1-.625.313l-.312 2.422a1.04 1.04 0 0 1-.339.651.973.973 0 0 1-.677.26Zm-1.9-6.771a3.513 3.513 0 0 0 2.577-1.068 3.513 3.513 0 0 0 1.068-2.578 3.513 3.513 0 0 0-1.068-2.578 3.513 3.513 0 0 0-2.578-1.068c-1.024 0-1.888.356-2.592 1.068-.703.712-1.054 1.571-1.054 2.578s.352 1.866 1.054 2.578c.703.712 1.567 1.068 2.592 1.068Zm0-2.084c-.435 0-.804-.152-1.108-.456a1.503 1.503 0 0 1-.455-1.106c0-.434.152-.803.456-1.107a1.503 1.503 0 0 1 1.106-.456c.434 0 .803.153 1.107.457.305.304.456.673.456 1.106 0 .434-.152.803-.457 1.107a1.503 1.503 0 0 1-1.106.456Zm-1.095 6.771h2.058l.364-2.76a5.84 5.84 0 0 0 1.498-.613 6.23 6.23 0 0 0 1.263-.976l2.578 1.068 1.015-1.77-2.24-1.694c.088-.242.148-.498.183-.767a6.403 6.403 0 0 0 0-1.64 3.696 3.696 0 0 0-.182-.77l2.24-1.692-1.016-1.771-2.578 1.094a5.78 5.78 0 0 0-1.263-1.002 5.868 5.868 0 0 0-1.498-.613l-.338-2.76h-2.058l-.364 2.76a5.82 5.82 0 0 0-1.497.613c-.46.269-.881.594-1.264.976L5.781 7.448l-1.015 1.77 2.24 1.667c-.088.26-.148.521-.183.782-.035.26-.052.538-.052.833 0 .278.017.547.052.807.035.26.095.521.182.781l-2.24 1.693 1.016 1.771 2.578-1.094c.382.4.804.734 1.264 1.003.46.27.96.474 1.497.612l.338 2.76Z" mask="url(#a)"/>
</svg>
