<svg xmlns="http://www.w3.org/2000/svg" width="30" height="30" fill="none" viewBox="0 0 30 30">
  <path fill="#89A7D6" d="m18.594 26.375 10.531-10.5c.125-.125.214-.26.266-.406.053-.146.079-.302.078-.469 0-.167-.027-.323-.079-.469a1.111 1.111 0 0 0-.265-.406L18.594 3.594a1.484 1.484 0 0 0-1.094-.438c-.438 0-.813.156-1.125.469a1.5 1.5 0 0 0-.469 1.094c0 .416.156.781.469 1.093L25.563 15l-9.188 9.188a1.466 1.466 0 0 0-.438 1.078c0 .428.157.797.47 1.109a1.5 1.5 0 0 0 1.093.469 1.5 1.5 0 0 0 1.094-.469Z"/>
</svg>
