<svg xmlns="http://www.w3.org/2000/svg" width="40" height="40" fill="none" viewBox="0 0 40 40">
  <path fill="#FBB3C4" d="M19.002 13.912a4.51 4.51 0 0 0-.074-.368c-.562-2.232-2.706-3.615-4.79-3.09-2.082.524-3.315 2.758-2.752 4.99.03.122.068.242.109.359a2.803 2.803 0 0 0-.688 2.65c.375 1.489 1.804 2.41 3.192 2.061.936-.235 2.061-1.951 2.175-1.98.115-.028 1.919.95 2.854.714 1.389-.35 2.21-1.84 1.835-3.327a2.803 2.803 0 0 0-1.86-2.01Zm-7.685-5.054c.77-.298 1.055-1.412.639-2.489-.417-1.077-1.378-1.708-2.147-1.411-.77.297-1.055 1.412-.639 2.488.416 1.077 1.378 1.71 2.147 1.412Zm-2.3 4.846c.684-.462.714-1.612.067-2.569-.646-.956-1.724-1.357-2.408-.896-.683.462-.713 1.612-.067 2.568.647.957 1.725 1.358 2.408.897Zm12.545-5.356c.086-1.15-.51-2.134-1.333-2.196-.822-.062-1.559.822-1.645 1.973-.087 1.151.51 2.135 1.332 2.196.823.062 1.56-.821 1.646-1.973Zm-5.867-.588c.816-.121 1.341-1.145 1.173-2.287-.169-1.142-.967-1.97-1.783-1.85-.816.12-1.34 1.144-1.172 2.286.168 1.142.966 1.97 1.782 1.85Zm13.203 23.854c.043-.116.083-.235.117-.356.616-2.217-.562-4.48-2.632-5.056-2.07-.575-4.246.756-4.862 2.974-.034.122-.06.244-.083.366-.881.251-1.633.967-1.91 1.963-.41 1.478.375 2.987 1.755 3.37.93.258 2.755-.675 2.87-.644.114.032 1.197 1.775 2.126 2.032 1.38.384 2.83-.503 3.242-1.982a2.803 2.803 0 0 0-.623-2.666Zm-2.39-10.044c.171-1.141-.351-2.166-1.167-2.288-.816-.122-1.616.704-1.787 1.846-.17 1.142.352 2.167 1.168 2.289.815.122 1.615-.704 1.786-1.846Zm-6.184 4.922c.823-.063 1.418-1.047 1.33-2.198-.087-1.151-.825-2.034-1.648-1.97-.822.062-1.418 1.046-1.33 2.197.088 1.151.826 2.034 1.648 1.971Zm13.552 1.554c.645-.958.613-2.107-.07-2.568-.685-.46-1.762-.058-2.407.9-.645.957-.614 2.107.07 2.568.685.46 1.762.058 2.407-.9Zm-2.656-4.82c.419-1.076.136-2.19-.633-2.49-.768-.3-1.731.33-2.15 1.406-.42 1.076-.136 2.19.632 2.49.769.3 1.732-.33 2.15-1.406Z"/>
</svg>
