<svg xmlns="http://www.w3.org/2000/svg" width="30" height="30" fill="none" viewBox="0 0 30 30">
  <path fill="#555" d="M11.406 26.375.875 15.875a1.104 1.104 0 0 1-.266-.406A1.354 1.354 0 0 1 .53 15c0-.167.027-.323.079-.469a1.11 1.11 0 0 1 .265-.406L11.406 3.594a1.484 1.484 0 0 1 1.094-.438c.438 0 .813.156 1.125.469a1.5 1.5 0 0 1 .469 1.094 1.5 1.5 0 0 1-.469 1.093L4.438 15l9.187 9.188c.292.291.438.65.438 1.078 0 .428-.157.797-.47 1.109a1.5 1.5 0 0 1-1.093.469 1.5 1.5 0 0 1-1.094-.469Z"/>
</svg>
