<?xml version="1.0" encoding="utf-8"?>
<!-- Generator: Adobe Illustrator 24.3.0, SVG Export Plug-In . SVG Version: 6.00 Build 0)  -->
<svg version="1.1" id="圖層_1" xmlns="http://www.w3.org/2000/svg" xmlns:xlink="http://www.w3.org/1999/xlink" x="0px" y="0px"
	 viewBox="0 0 64 64" style="enable-background:new 0 0 64 64;" xml:space="preserve">
<style type="text/css">
	.st0{fill:#79A0C9;}
</style>
<g>
	<path class="st0" d="M45,26.1c-0.6-0.8-1.6-1.2-2.6-0.6c-0.8,0.6-1.2,1.6-0.6,2.6c1.2,2,1.8,4.4,1.6,7c-0.6,5.6-5,9.8-10.6,10.2
		c-6.8,0.4-12.2-5-12.2-11.6c0-6.2,5-11.2,11.2-11.4l0,0v2.8c0,0.8,0.8,1.2,1.6,0.8l7.4-4.6c0.6-0.4,0.6-1.4,0-1.8l-7.4-4.6
		c-0.6-0.4-1.6,0-1.6,0.8v2.8c-8.8,0-15.6,7.4-15,16.4c0.6,7.4,6.6,13.4,14,14c8.8,0.6,16.4-6.4,16.4-15.2
		C47.2,31.1,46.4,28.3,45,26.1L45,26.1z"/>
</g>
</svg>
