<svg xmlns="http://www.w3.org/2000/svg" width="88" height="88" fill="none" viewBox="0 0 88 88">
  <g clip-path="url(#a)">
    <path fill="#E6E6EB" d="M15.273 18.91a3.637 3.637 0 0 1 1.09-2.597 21.818 21.818 0 0 1 29.866-.64l1.276 1.193a14.545 14.545 0 0 0 19.171 0l.906-.826c2.218-1.756 5.553-.353 5.854 2.458l.018.411v32.727a3.637 3.637 0 0 1-1.09 2.597 21.818 21.818 0 0 1-29.866.64l-1.276-1.193a14.545 14.545 0 0 0-18.677-.414V77.09a3.636 3.636 0 0 1-7.247.425l-.025-.425V18.909Z"/>
  </g>
  <defs>
    <clipPath id="a">
      <path fill="#fff" d="M0 0h87.273v87.273H0z" transform="translate(.727 .727)"/>
    </clipPath>
  </defs>
</svg>
